<svg xmlns="http://www.w3.org/2000/svg" viewBox="0 0 1200 900" width="1200" height="900">
  <defs>
    <linearGradient id="bg-heritage-banner" x1="0%" y1="0%" x2="100%" y2="100%">
      <stop offset="0%" stop-color="#8a1a2e"/>
      <stop offset="100%" stop-color="#560919"/>
    </linearGradient>
    <radialGradient id="glow-heritage-banner" cx="50%" cy="38%" r="65%">
      <stop offset="0%" stop-color="#e9c873" stop-opacity="0.22"/>
      <stop offset="100%" stop-color="#e9c873" stop-opacity="0"/>
    </radialGradient>
    
  <pattern id="jaali-heritage-banner" width="46" height="46" patternUnits="userSpaceOnUse">
    <path d="M23 2 L44 23 L23 44 L2 23 Z" fill="none" stroke="#e9c873" stroke-width="1" opacity="0.35"/>
    <circle cx="23" cy="23" r="3" fill="#e9c873" opacity="0.3"/>
  </pattern>
    <filter id="grain-heritage-banner">
      <feTurbulence type="fractalNoise" baseFrequency="0.9" numOctaves="2" result="n"/>
      <feColorMatrix in="n" type="matrix" values="0 0 0 0 0  0 0 0 0 0  0 0 0 0 0  0 0 0 0.03 0"/>
    </filter>
  </defs>
  <rect width="1200" height="900" fill="url(#bg-heritage-banner)"/>
  <rect width="1200" height="900" fill="url(#jaali-heritage-banner)"/>
  <rect width="1200" height="900" fill="url(#glow-heritage-banner)"/>
  <rect x="18" y="18" width="1164" height="864" fill="none" stroke="#e9c873" stroke-width="2" opacity="0.5" rx="6"/>
  <path d="M0,900 V854 Q46.15384615384615,810 92.3076923076923,854 V900" fill="none" stroke="#e9c873" stroke-width="2" opacity="0.55"/><path d="M92.3076923076923,900 V854 Q138.46153846153845,810 184.6153846153846,854 V900" fill="none" stroke="#e9c873" stroke-width="2" opacity="0.55"/><path d="M184.6153846153846,900 V854 Q230.76923076923077,810 276.9230769230769,854 V900" fill="none" stroke="#e9c873" stroke-width="2" opacity="0.55"/><path d="M276.9230769230769,900 V854 Q323.07692307692304,810 369.2307692307692,854 V900" fill="none" stroke="#e9c873" stroke-width="2" opacity="0.55"/><path d="M369.2307692307692,900 V854 Q415.38461538461536,810 461.53846153846155,854 V900" fill="none" stroke="#e9c873" stroke-width="2" opacity="0.55"/><path d="M461.53846153846155,900 V854 Q507.6923076923077,810 553.8461538461538,854 V900" fill="none" stroke="#e9c873" stroke-width="2" opacity="0.55"/><path d="M553.8461538461538,900 V854 Q600,810 646.1538461538461,854 V900" fill="none" stroke="#e9c873" stroke-width="2" opacity="0.55"/><path d="M646.1538461538462,900 V854 Q692.3076923076924,810 738.4615384615385,854 V900" fill="none" stroke="#e9c873" stroke-width="2" opacity="0.55"/><path d="M738.4615384615385,900 V854 Q784.6153846153846,810 830.7692307692307,854 V900" fill="none" stroke="#e9c873" stroke-width="2" opacity="0.55"/><path d="M830.7692307692307,900 V854 Q876.9230769230769,810 923.076923076923,854 V900" fill="none" stroke="#e9c873" stroke-width="2" opacity="0.55"/><path d="M923.0769230769231,900 V854 Q969.2307692307693,810 1015.3846153846154,854 V900" fill="none" stroke="#e9c873" stroke-width="2" opacity="0.55"/><path d="M1015.3846153846154,900 V854 Q1061.5384615384614,810 1107.6923076923076,854 V900" fill="none" stroke="#e9c873" stroke-width="2" opacity="0.55"/><path d="M1107.6923076923076,900 V854 Q1153.8461538461538,810 1200,854 V900" fill="none" stroke="#e9c873" stroke-width="2" opacity="0.55"/>
  <g transform="translate(600, 420)">
    <path d="M-60,60 L-60,0 L0,-55 L60,0 L60,60 Z" fill="none" stroke="#e9c873" stroke-width="5"/>
    <path d="M-30,60 V15 H30 V60" fill="none" stroke="#e9c873" stroke-width="4"/>
    <circle cx="0" cy="-10" r="9" fill="#e9c873"/>
  </g>
  <text x="600" y="580" text-anchor="middle" font-family="Georgia, 'Playfair Display', serif" font-size="30" font-weight="700" fill="#e9c873" letter-spacing="1">HERITAGE OF BIKANER</text>
  <text x="1178" y="878" text-anchor="end" font-family="Georgia, 'Playfair Display', serif" font-size="22" font-style="italic" font-weight="700" fill="#e9c873" opacity="0.75">Meerav</text>
  <rect width="1200" height="900" filter="url(#grain-heritage-banner)" opacity="0.6"/>
</svg>